<svg width="25" height="25" viewBox="0 0 25 25" fill="none" xmlns="http://www.w3.org/2000/svg">
    <path fill-rule="evenodd" clip-rule="evenodd"
        d="M12.498 22.7285C18.0209 22.7285 22.498 18.2514 22.498 12.7285C22.498 7.20567 18.0209 2.72852 12.498 2.72852C6.9752 2.72852 2.49805 7.20567 2.49805 12.7285C2.49805 18.2514 6.9752 22.7285 12.498 22.7285ZM12.8021 4.95931C12.7113 4.86851 12.5978 4.82311 12.507 4.82311C12.3935 4.82311 12.28 4.86851 12.2119 4.95931L10.1235 7.02496C9.85113 7.29736 10.0554 7.72865 10.4186 7.72865H14.5726C14.9585 7.72865 15.1401 7.29736 14.8677 7.02496L12.8021 4.95931ZM14.5726 17.7284H10.4186C10.0554 17.7284 9.85113 18.1824 10.1235 18.4548L12.2119 20.5204C12.28 20.5885 12.3935 20.6339 12.507 20.6339C12.5978 20.6339 12.7113 20.5885 12.8021 20.5204L14.8677 18.4548C15.1401 18.1824 14.9585 17.7284 14.5726 17.7284ZM4.72835 12.4245C4.63755 12.5153 4.59215 12.6288 4.59215 12.7196C4.59215 12.8331 4.63755 12.9466 4.72835 13.0147L6.79401 15.103C7.0664 15.3754 7.49769 15.1711 7.49769 14.8079V10.6539C7.49769 10.268 7.0664 10.0864 6.79401 10.3588L4.72835 12.4245ZM17.4984 10.6539V14.8079C17.4984 15.1711 17.9524 15.3754 18.2248 15.103L20.2904 13.0147C20.3585 12.9466 20.4039 12.8331 20.4039 12.7196C20.4039 12.6288 20.3585 12.5153 20.2904 12.4245L18.2248 10.3588C17.9524 10.0864 17.4984 10.268 17.4984 10.6539ZM12.498 14.7285C13.6026 14.7285 14.498 13.8331 14.498 12.7285C14.498 11.6239 13.6026 10.7285 12.498 10.7285C11.3935 10.7285 10.498 11.6239 10.498 12.7285C10.498 13.8331 11.3935 14.7285 12.498 14.7285Z"
        fill="white" />
</svg>